<?xml version="1.0" encoding="UTF-8"?>
<svg width="19px" height="22px" viewBox="0 0 19 22" version="1.1" xmlns="http://www.w3.org/2000/svg" xmlns:xlink="http://www.w3.org/1999/xlink">
    <!-- Generator: sketchtool 58 (101010) - https://sketch.com -->
    <title>D82D125D-DE0C-4997-8CDF-44E1A8BBF4C9</title>
    <desc>Created with sketchtool.</desc>
    <g id="Web" stroke="none" stroke-width="1" fill="none" fill-rule="evenodd" opacity="0.699999988">
        <g id="Home" transform="translate(-371.000000, -24.000000)" fill="#FFFFFF">
            <g id="Main-Menu">
                <g id="Items" transform="translate(222.375000, 15.000000)">
                    <g id="02" transform="translate(149.000000, 0.000000)">
                        <path d="M15.5000764,9 C16.8573492,9 17.9938408,10.1354109 17.9938408,11.4937643 L17.9938408,11.4937643 L17.9938408,30.1687341 C17.9938408,30.4739709 17.8271575,30.7510558 17.5782134,30.8895983 C17.4396709,30.9718593 17.3011284,31 17.162586,31 C17.0240435,31 16.8855011,30.9729399 16.7469586,30.8895983 L16.7469586,30.8895983 L8.99692038,27.0104093 L1.24688216,30.8895983 C0.997949068,31.0281407 0.664571569,31.0281407 0.415627388,30.8895983 C0.166683208,30.7510558 0,30.4739709 0,30.1687341 L0,30.1687341 L0,11.4937643 C0,10.1083397 1.1083397,9 2.49376433,9 L2.49376433,9 Z M11.1519783,15.6 L6.33125478,15.6 C5.86043207,15.6 5.5,15.9604321 5.5,16.4312548 C5.5,16.9020775 5.86043207,17.2625096 6.33125478,17.2625096 L6.33125478,17.2625096 L11.1519783,17.2625096 C11.5957575,17.2625096 11.9832331,16.9020775 11.9832331,16.4312548 C11.9832331,15.9604321 11.622801,15.6 11.1519783,15.6 L11.1519783,15.6 Z" id="Icon"></path>
                    </g>
                </g>
            </g>
        </g>
    </g>
</svg>