<?xml version="1.0" encoding="UTF-8"?>
<svg width="22px" height="20px" viewBox="0 0 22 20" version="1.1" xmlns="http://www.w3.org/2000/svg" xmlns:xlink="http://www.w3.org/1999/xlink">
    <!-- Generator: sketchtool 58 (101010) - https://sketch.com -->
    <title>77DA8893-E9F8-4E5E-85BA-656247660AE9</title>
    <desc>Created with sketchtool.</desc>
    <g id="Web" stroke="none" stroke-width="1" fill="none" fill-rule="evenodd">
        <g id="Home" transform="translate(-222.000000, -25.000000)" fill="#FFFFFF">
            <g id="Main-Menu">
                <g id="Items" transform="translate(222.375000, 15.000000)">
                    <g id="01">
                        <path d="M6.88888889,21.1111111 C7.99345839,21.1111111 8.88888889,22.0065416 8.88888889,23.1111111 L8.88888889,28 C8.88888889,29.1045695 7.99345839,30 6.88888889,30 L2,30 C0.8954305,30 1.3527075e-16,29.1045695 0,28 L0,23.1111111 C-1.3527075e-16,22.0065416 0.8954305,21.1111111 2,21.1111111 L6.88888889,21.1111111 Z M19.1111111,21.1111111 C20.2156806,21.1111111 21.1111111,22.0065416 21.1111111,23.1111111 L21.1111111,28 C21.1111111,29.1045695 20.2156806,30 19.1111111,30 L14.2222222,30 C13.1176527,30 12.2222222,29.1045695 12.2222222,28 L12.2222222,23.1111111 C12.2222222,22.0065416 13.1176527,21.1111111 14.2222222,21.1111111 L19.1111111,21.1111111 Z M6.88888889,10 C7.99345839,10 8.88888889,10.8954305 8.88888889,12 L8.88888889,16.8888889 C8.88888889,17.9934584 7.99345839,18.8888889 6.88888889,18.8888889 L2,18.8888889 C0.8954305,18.8888889 1.3527075e-16,17.9934584 0,16.8888889 L0,12 C-1.3527075e-16,10.8954305 0.8954305,10 2,10 L6.88888889,10 Z M19.1111111,10 C20.2156806,10 21.1111111,10.8954305 21.1111111,12 L21.1111111,16.8888889 C21.1111111,17.9934584 20.2156806,18.8888889 19.1111111,18.8888889 L14.2222222,18.8888889 C13.1176527,18.8888889 12.2222222,17.9934584 12.2222222,16.8888889 L12.2222222,12 C12.2222222,10.8954305 13.1176527,10 14.2222222,10 L19.1111111,10 Z" id="Icon"></path>
                    </g>
                </g>
            </g>
        </g>
    </g>
</svg>