<?xml version="1.0" encoding="UTF-8"?>
<svg width="18px" height="35px" viewBox="0 0 18 35" version="1.1" xmlns="http://www.w3.org/2000/svg" xmlns:xlink="http://www.w3.org/1999/xlink">
    <!-- Generator: sketchtool 58 (101010) - https://sketch.com -->
    <title>93574D2C-44E7-4C1C-AF70-20A6914CAE94</title>
    <desc>Created with sketchtool.</desc>
    <g id="Web" stroke="none" stroke-width="1" fill="none" fill-rule="evenodd">
        <g id="Home" transform="translate(-164.000000, -9.000000)" fill="#FFFFFF">
            <g id="Main-Menu">
                <g id="Logo" transform="translate(164.000000, 9.000000)">
                    <path d="M4.67800597,28.0589038 L4.67800597,33.0786478 C4.67800597,34.1034242 3.84726051,34.9341697 2.82248405,34.9341697 C1.79770759,34.9341697 0.966962127,34.1034242 0.966962127,33.0786478 L0.966962127,19.1586454 C0.966962127,18.1472743 1.78684042,17.327396 2.79821155,17.327396 C3.38621745,17.327396 3.93845755,17.6097541 4.28274114,18.0864298 L6.71467806,21.4535532 C7.3035186,22.2688288 7.93378715,23.0533662 8.60299993,23.8040737 L10.2543856,25.6565601 C10.8132561,26.2834881 11.7745357,26.3386597 12.4014637,25.7797892 C12.7251426,25.4912479 12.9102511,25.0782531 12.9102511,24.6446356 L12.9102511,18.2344724 C12.9102511,17.209696 13.7409966,16.3789505 14.765773,16.3789505 C15.7905495,16.3789505 16.6212949,17.209696 16.6212949,18.2344724 L16.6212949,33.5104327 C16.6212949,34.2529237 16.019387,34.8548316 15.276896,34.8548316 C14.8391238,34.8548316 14.4287661,34.6416836 14.1770231,34.2835357 C12.3962759,31.7910105 11.3549649,30.3708297 11.0530902,30.0229931 L8.20537863,26.7417036 C7.47790907,25.9034733 6.20865852,25.813684 5.37042819,26.5411535 C4.93061725,26.9228494 4.67800597,27.476559 4.67800597,28.0589038 Z" id="N"></path>
                    <path d="M11.7202479,2.81287421 C11.7202479,6.09129959 10.5806891,9.20342803 8.53532731,11.7929089 L6.1685515,10.5338035 C7.92171877,8.32442992 8.82752186,5.66367889 8.82752186,2.81287421 C8.82752186,-0.0141737643 7.89249932,-2.62741139 6.1685515,-4.83678501 L8.53532731,-6.09589041 C10.5514697,-3.50640949 11.7202479,-0.465551172 11.7202479,2.81287421 Z" id="Shape" opacity="0.300000012" transform="translate(8.944400, 2.848509) rotate(-90.000000) translate(-8.944400, -2.848509) "></path>
                    <path d="M11.1033927,8.99255951 L11.1033927,8.96805826 C11.1033927,10.9036575 10.3984154,12.7412517 9.25282725,14.2603295 L6.78540665,12.961763 C7.6666283,11.8102039 8.16598723,10.4136324 8.16598723,8.96805826 C8.16598723,7.52248415 7.6666283,6.22391759 6.78540665,5.07235856 L9.25282725,3.77379199 C10.4277894,5.31737112 11.1033927,7.05696029 11.1033927,8.99255951 Z" id="Path" transform="translate(8.944400, 9.017061) rotate(-90.000000) translate(-8.944400, -9.017061) "></path>
                </g>
            </g>
        </g>
    </g>
</svg>