<?xml version="1.0" encoding="UTF-8"?>
<svg width="23px" height="22px" viewBox="0 0 23 22" version="1.1" xmlns="http://www.w3.org/2000/svg" xmlns:xlink="http://www.w3.org/1999/xlink">
    <!-- Generator: sketchtool 58 (101010) - https://sketch.com -->
    <title>60FCAF04-BEA2-4528-B0DF-3768E5D6B1D2</title>
    <desc>Created with sketchtool.</desc>
    <g id="Web" stroke="none" stroke-width="1" fill="none" fill-rule="evenodd" opacity="0.699999988">
        <g id="Home" transform="translate(-534.000000, -24.000000)" fill="#FFFFFF" fill-rule="nonzero">
            <g id="Main-Menu">
                <g id="Items" transform="translate(222.375000, 15.000000)">
                    <g id="03" transform="translate(312.000000, 0.000000)">
                        <path d="M9.38744959,10.4664672 L9.38744959,20.7332835 C9.38744959,20.8803541 9.38744959,20.9534031 9.46049868,21.0264572 C9.53354777,21.0995063 9.53354777,21.2465769 9.68061836,21.319631 L16.9406458,28.5796584 C15.1806558,30.1195312 12.8342684,31 10.3408702,31 C4.61976811,31 4.40536496e-13,26.3804812 4.40536496e-13,20.7331837 C0.000304194576,15.306153 4.18073555,10.9068013 9.38744959,10.4664672 Z M20.5339367,21.5398978 C20.3138171,23.7401222 19.4342983,25.7933857 18.1145676,27.3330591 L12.3211819,21.5398978 L20.5339367,21.5398978 Z M11.7338869,9 C17.380935,9 22.0007031,13.6195188 22.0007031,19.2668163 C22.0005535,19.706901 21.6343232,20.0000748 21.2671454,20.0000748 L11.7338869,20.0000748 C11.2936525,20.0000748 11.0004787,19.706901 11.0004787,19.2666667 L11.0004787,9.73340814 C11.0004787,9.29317376 11.2936525,9 11.7338869,9 Z" id="Icon"></path>
                    </g>
                </g>
            </g>
        </g>
    </g>
</svg>