<?xml version="1.0" encoding="UTF-8"?>
<svg width="21px" height="22px" viewBox="0 0 21 22" version="1.1" xmlns="http://www.w3.org/2000/svg" xmlns:xlink="http://www.w3.org/1999/xlink">
    <!-- Generator: sketchtool 58 (101010) - https://sketch.com -->
    <title>51604346-87AB-497F-8AE5-FF9E79B363D9</title>
    <desc>Created with sketchtool.</desc>
    <g id="Web" stroke="none" stroke-width="1" fill="none" fill-rule="evenodd">
        <g id="Home" transform="translate(-1070.000000, -24.000000)" fill="#FFFFFF" fill-rule="nonzero">
            <g id="Main-Menu">
                <path d="M1090.4893,43.7444171 L1086.49546,39.749681 C1087.98514,38.0802094 1088.90973,35.868674 1088.90973,33.4544119 C1088.90973,28.2413749 1084.66722,24 1079.45531,24 C1074.24228,24 1070,28.2416006 1070,33.4544119 C1070,38.6672233 1074.2425,42.9088239 1079.45441,42.9088239 C1081.30459,42.9088239 1083.01996,42.3676176 1084.46368,41.4650053 L1088.61525,45.6165703 C1088.86383,45.8651497 1089.20231,46 1089.54079,46 C1089.87927,46 1090.21775,45.8642561 1090.46633,45.6165703 C1091.00841,45.0982678 1091.00841,44.262652 1090.48924,43.7443494 L1090.4893,43.7444171 Z M1072.63969,33.4541863 C1072.63969,29.7078942 1075.68601,26.6396895 1079.45419,26.6396895 C1083.22327,26.6396895 1086.24679,29.7081198 1086.24679,33.4541863 C1086.24679,37.2002527 1083.20048,40.268683 1079.45509,40.268683 C1075.7088,40.268683 1072.63969,37.2223667 1072.63969,33.4541863 Z" id="Icon"></path>
            </g>
        </g>
    </g>
</svg>